<?xml version="1.0" encoding="UTF-8"?>
<svg width="90px" height="87px" viewBox="0 0 90 87" version="1.1" xmlns="http://www.w3.org/2000/svg" xmlns:xlink="http://www.w3.org/1999/xlink">
    <!-- Generator: Sketch 51.3 (57544) - http://www.bohemiancoding.com/sketch -->
    <title>beedii/weary-face</title>
    <desc>Created with Sketch.</desc>
    <defs></defs>
    <g id="Page-1" stroke="none" stroke-width="1" fill="none" fill-rule="evenodd">
        <g id="beedii" transform="translate(-271.000000, -150.000000)" fill="#000000">
            <g id="beedii/angry-face" transform="translate(268.000000, 145.000000)">
                <path d="M88.861,49.204 C88.84,49.765 88.657,50.318 88.612,50.879 C88.574,51.37 88.631,51.867 88.643,52.361 C88.655,52.869 88.708,53.381 88.662,53.884 C88.608,54.477 88.472,55.063 88.362,55.651 C88.263,56.183 88.165,56.715 88.043,57.242 C87.888,57.911 87.624,58.567 87.568,59.243 C87.51,59.941 87.091,60.472 86.924,61.107 C86.844,61.413 86.8,61.733 86.685,62.025 C86.476,62.553 86.223,63.063 85.995,63.583 C85.813,63.998 85.654,64.425 85.458,64.834 C85.232,65.306 84.993,65.774 84.73,66.226 C84.324,66.921 83.897,67.603 83.469,68.285 C83.281,68.584 83.051,68.857 82.874,69.162 C82.658,69.533 82.274,69.85 82.429,70.366 C82.439,70.4 82.359,70.456 82.332,70.508 C82.237,70.688 82.148,70.872 82.036,70.981 C81.707,71.242 81.191,71.445 81.088,71.776 C80.902,72.379 80.402,72.608 80.051,73.009 C79.89,73.193 79.756,73.402 79.591,73.582 C79.077,74.145 78.574,74.71 77.881,75.084 C77.587,75.243 77.403,75.594 77.141,75.825 C76.77,76.152 76.507,76.596 75.943,76.718 C75.671,76.776 75.382,77.075 75.241,77.34 C75.023,77.747 74.688,77.857 74.292,77.952 C74.313,78.016 74.338,78.091 74.362,78.168 C74.323,78.197 74.295,78.233 74.278,78.228 C73.978,78.14 73.738,78.197 73.586,78.494 C73.558,78.549 73.521,78.64 73.482,78.642 C73.044,78.675 72.804,78.968 72.521,79.262 C72.139,79.657 71.378,79.434 71.098,80.058 C70.35,79.918 70.134,80.755 69.542,80.906 C69.387,80.945 69.238,81.006 69.086,81.058 C69.13,81.085 69.174,81.112 69.218,81.14 C68.584,81.486 67.963,81.86 67.31,82.169 C66.684,82.466 66.026,82.695 65.305,82.985 C65.307,82.973 65.286,83.084 65.287,83.08 C64.902,83.157 64.591,83.217 64.282,83.283 C64.18,83.305 64.077,83.334 63.98,83.375 C63.583,83.54 63.197,83.739 62.79,83.872 C62.298,84.034 61.782,84.123 61.29,84.282 C61.135,84.332 61.022,84.506 60.853,84.655 C60.758,84.616 60.606,84.553 60.569,84.537 C59.821,84.829 59.158,85.095 58.489,85.345 C58.251,85.434 58,85.539 57.753,85.546 C57.121,85.562 56.576,86.034 55.919,85.877 C55.889,85.87 55.847,85.864 55.827,85.878 C55.286,86.265 54.676,86.079 54.088,86.11 C53.651,86.133 53.219,86.267 52.784,86.347 C52.539,86.392 52.293,86.428 52.047,86.467 C51.961,86.48 51.851,86.455 51.793,86.501 C51.37,86.831 50.878,86.685 50.415,86.755 C49.947,86.825 49.483,86.523 49.02,86.812 C48.868,86.907 48.605,86.907 48.423,86.851 C48.145,86.768 47.936,86.78 47.756,87.018 C47.734,87.047 47.644,87.069 47.629,87.053 C47.265,86.657 46.82,86.984 46.418,86.935 C45.959,86.88 45.478,87.033 45.007,87.026 C44.537,87.02 44.068,86.931 43.599,86.875 C43.357,86.846 43.115,86.81 42.874,86.778 C42.688,86.753 42.503,86.717 42.316,86.709 C41.847,86.688 41.378,86.689 40.91,86.664 C40.192,86.627 39.462,86.787 38.764,86.418 C38.393,86.221 37.949,86.152 37.531,86.061 C37.446,86.042 37.327,86.186 37.282,86.216 C36.784,86.047 36.309,85.859 35.819,85.729 C35.399,85.617 34.962,85.572 34.403,85.475 C34.039,85.159 33.401,85.207 32.817,85.075 C32.469,84.996 32.132,84.87 31.794,84.755 C31.519,84.662 31.246,84.562 30.978,84.45 C30.499,84.25 30.028,84.031 29.547,83.839 C29.423,83.789 29.271,83.811 29.166,83.733 C28.96,83.644 28.76,83.533 28.547,83.469 C27.897,83.272 27.097,83.339 26.706,82.672 C26.544,82.394 26.256,82.701 26.117,82.359 C26.029,82.144 25.524,82.099 25.207,81.977 C24.682,81.774 24.202,81.531 23.767,81.134 C23.384,80.784 22.838,80.615 22.368,80.356 C21.785,80.034 21.2,79.713 20.628,79.371 C20.295,79.172 19.968,78.954 19.671,78.707 C19.412,78.491 19.213,78.204 18.959,77.98 C18.825,77.862 18.632,77.811 18.443,77.77 C18.208,77.528 18.186,77.106 17.72,76.995 C17.57,76.959 17.509,76.637 17.353,76.517 C17.239,76.431 17.035,76.462 16.866,76.441 C16.878,76.422 16.91,76.356 16.955,76.301 C16.989,76.258 17.04,76.227 17.054,76.215 C16.91,76.14 16.758,76.102 16.668,76.006 C16.153,75.46 15.657,74.897 15.147,74.347 C14.818,73.992 14.43,73.68 14.149,73.29 C13.852,72.878 13.697,72.363 13.394,71.957 C13.054,71.5 12.587,71.139 12.231,70.691 C11.895,70.268 11.611,69.799 11.343,69.327 C11.219,69.107 11.209,68.826 11.109,68.588 C11.077,68.515 10.919,68.495 10.906,68.422 C10.74,68.128 10.586,67.826 10.404,67.542 C10.232,67.273 10.029,67.024 9.841,66.765 C9.815,66.729 9.766,66.683 9.773,66.654 C9.957,65.9 9.47,65.339 9.231,64.704 C9.104,64.365 9.044,63.999 8.933,63.653 C8.888,63.511 8.787,63.387 8.773,63.363 C8.547,62.657 8.354,62.054 8.151,61.421 C8.52,61.287 8.314,61.027 8.189,60.737 C8.067,60.453 7.736,60.213 7.975,59.814 C8.024,59.732 7.812,59.518 7.773,59.353 C7.687,58.991 7.634,58.621 7.564,58.236 C7.587,58.234 7.52,58.241 7.523,58.24 C7.543,58.04 7.584,57.842 7.577,57.644 C7.568,57.363 7.524,57.083 7.496,56.802 C7.485,56.689 7.507,56.557 7.456,56.466 C7.396,56.36 7.273,56.289 7.13,56.161 C7.103,56.204 7.13,56.113 7.19,56.075 C7.591,55.821 7.573,55.518 7.429,55.097 C7.32,54.777 7.411,54.39 7.408,54.033 C7.405,53.572 7.715,53.119 7.425,52.647 C7.373,52.562 7.423,52.412 7.433,52.293 C7.481,51.726 7.528,51.158 7.585,50.591 C7.602,50.42 7.647,50.251 7.685,50.082 C7.695,50.038 7.756,49.981 7.743,49.96 C7.376,49.34 8.113,48.963 8.083,48.4 C8.061,47.981 8.184,47.554 8.241,47.131 C8.246,47.091 8.224,47.019 8.237,47.013 C8.831,46.746 8.397,46.292 8.441,45.879 C8.533,45.912 8.619,45.941 8.651,45.953 C8.882,44.995 9.114,44.033 9.332,43.133 C9.242,42.968 9.084,42.808 9.116,42.707 C9.172,42.531 9.336,42.385 9.471,42.242 C9.555,42.154 9.753,42.098 9.756,42.022 C9.768,41.639 10.329,41.438 10.072,40.939 C10.009,40.816 10.288,40.5 10.436,40.291 C10.601,40.057 10.694,39.835 10.534,39.558 C10.505,39.508 10.54,39.377 10.59,39.333 C10.757,39.186 10.884,39.075 10.777,38.8 C10.742,38.713 11.019,38.504 11.069,38.352 C11.147,37.997 11.197,37.632 11.311,37.288 C11.443,36.887 11.625,36.501 11.798,36.114 C11.867,35.957 11.939,35.784 12.059,35.671 C12.672,35.1 12.782,34.296 13.079,33.575 C13.243,33.175 13.476,32.803 13.684,32.422 C13.951,31.934 14.209,31.441 14.497,30.967 C14.749,30.552 14.972,30.081 15.331,29.784 C15.604,29.558 15.614,29.245 15.822,29.011 C16.052,28.751 16.131,28.362 16.313,28.052 C16.448,27.82 16.654,27.632 16.81,27.411 C17.003,27.137 17.175,26.849 17.356,26.57 C17.425,26.522 17.569,26.476 17.614,26.383 C17.797,26.008 17.919,25.647 18.389,25.451 C18.672,25.333 18.822,24.892 19.024,24.59 C19.189,24.345 19.322,24.076 19.51,23.851 C19.574,23.775 19.763,23.803 20.002,23.767 C20.47,23.096 20.99,22.307 21.557,21.553 C21.781,21.256 22.112,21.04 22.39,20.783 C22.496,20.685 22.606,20.587 22.686,20.469 C22.998,20.01 23.524,19.785 23.878,19.334 C24.105,19.045 24.403,18.683 24.756,18.45 C24.94,18.329 25.146,18.234 25.306,18.089 C25.399,18.004 25.42,17.842 25.5,17.651 C25.588,17.694 25.724,17.762 25.983,17.89 C26.15,17.696 26.369,17.433 26.598,17.18 C26.792,16.963 26.975,16.725 27.205,16.554 C27.424,16.392 27.697,16.303 27.932,16.189 C27.901,16.169 27.82,16.116 27.739,16.063 C27.747,16.017 27.755,15.972 27.763,15.926 C27.943,15.947 28.123,15.967 28.395,15.998 C28.405,15.858 28.442,15.673 28.426,15.493 C28.399,15.187 28.581,15.243 28.778,15.223 C29.001,15.2 29.233,15.129 29.431,15.023 C29.673,14.894 29.877,14.697 30.108,14.545 C30.493,14.29 30.874,14.025 31.281,13.809 C31.609,13.636 31.985,13.553 32.317,13.386 C32.624,13.232 32.893,13.006 33.194,12.838 C33.489,12.673 33.803,12.541 34.127,12.387 C34.113,12.371 34.062,12.308 33.955,12.179 C34.553,12.505 34.85,12.141 35.149,11.778 C35.261,12.066 35.409,11.999 35.61,11.872 C35.778,11.765 35.979,11.692 36.175,11.652 C36.509,11.584 36.699,11.324 36.957,11.157 C37.205,10.995 37.567,11.007 37.88,10.949 C37.911,10.943 37.969,11.009 37.982,10.998 C38.425,10.66 38.903,10.748 39.4,10.843 C39.735,10.907 40.032,10.758 40.337,10.584 C40.544,10.467 40.863,10.567 41.115,10.503 C41.394,10.432 41.644,10.247 41.923,10.181 C42.198,10.115 42.494,10.149 42.778,10.114 C42.956,10.091 43.128,10.02 43.32,9.966 C43.325,10.019 43.339,10.152 43.343,10.197 C44.019,10.183 44.685,10.171 45.352,10.157 C45.537,10.152 45.723,10.131 45.908,10.141 C46.206,10.157 46.51,10.243 46.8,10.207 C47.317,10.144 47.828,10.022 48.337,9.904 C48.672,9.827 48.992,9.676 49.329,9.623 C49.907,9.532 50.491,9.465 51.081,9.565 C51.188,9.583 51.316,9.438 51.435,9.436 C51.594,9.434 51.753,9.514 51.914,9.53 C52.254,9.565 52.596,9.581 52.951,9.606 C52.955,9.614 52.93,9.57 52.897,9.511 C53.466,9.56 54.028,9.589 54.583,9.668 C54.759,9.693 54.907,9.894 55.086,9.933 C55.244,9.967 55.427,9.887 55.597,9.804 C56.065,10.023 56.736,10.113 56.908,9.981 C57.276,10.111 57.589,10.241 57.913,10.333 C58.456,10.487 59.001,10.638 59.554,10.748 C59.824,10.802 60.061,10.986 60.391,10.886 C60.541,10.84 60.779,11.081 60.976,11.196 C61,11.21 61.007,11.259 61.031,11.266 C61.412,11.387 61.796,11.498 62.175,11.622 C62.474,11.721 62.763,11.851 63.065,11.935 C63.345,12.013 63.643,12.027 63.921,12.108 C64.067,12.151 64.229,12.251 64.312,12.373 C64.622,12.834 65.049,13.017 65.589,13.062 C66.074,13.103 66.554,13.223 66.891,13.625 C67.045,13.81 67.178,13.929 67.286,13.767 C67.568,13.898 67.867,14.002 68.127,14.167 C68.485,14.393 68.808,14.674 69.157,14.916 C69.664,15.269 70.179,15.61 70.694,15.954 C70.912,16.099 71.136,16.236 71.357,16.379 C71.701,16.605 72.051,16.822 72.383,17.064 C72.537,17.177 72.653,17.342 72.787,17.483 C72.974,17.681 73.051,17.997 73.419,18.003 C73.491,18.004 73.56,18.223 73.674,18.256 C73.956,18.443 74.351,18.568 74.494,18.83 C74.747,19.294 75.164,19.545 75.526,19.866 C75.768,20.08 76.106,20.194 76.33,20.422 C76.507,20.602 76.532,20.928 76.703,21.121 C77.178,21.658 77.442,22.356 78.153,22.731 C78.533,22.932 78.733,23.469 79.024,23.847 C79.146,24.005 79.301,24.138 79.424,24.296 C79.778,24.754 80.266,25.106 80.417,25.731 C80.468,25.943 80.807,26.085 81.041,26.282 C81.079,26.378 81.113,26.577 81.222,26.715 C81.498,27.065 81.855,27.359 82.094,27.73 C82.479,28.327 82.774,28.98 83.146,29.585 C83.639,30.39 84.173,31.171 84.682,31.966 C84.786,32.129 84.876,32.306 84.944,32.488 C85.008,32.661 85.02,32.853 85.082,33.028 C85.348,33.775 85.586,34.536 85.907,35.259 C86.222,35.967 86.321,36.742 86.705,37.435 C86.944,37.87 86.931,38.438 87.074,38.934 C87.13,39.13 87.329,39.28 87.415,39.473 C87.489,39.639 87.494,39.837 87.531,40.02 C87.547,40.096 87.567,40.171 87.623,40.237 C87.512,41.114 87.751,41.918 88.149,42.771 C87.964,43.075 87.986,43.409 88.24,43.834 C88.416,44.13 88.324,44.592 88.328,44.979 C88.33,45.162 88.207,45.359 88.507,45.437 C88.568,45.454 88.612,45.635 88.618,45.743 C88.654,46.385 88.662,47.029 88.707,47.669 C88.744,48.183 88.88,48.695 88.861,49.204 M92.903,51.7 C92.809,52.241 92.678,52.755 92.641,53.277 C92.607,53.759 92.731,54.254 92.682,54.734 C92.611,55.439 92.455,56.137 92.317,56.834 C92.295,56.944 92.177,57.035 92.082,57.164 C92.192,57.153 92.273,57.144 92.322,57.139 C92.295,57.636 92.312,58.142 92.224,58.629 C92.164,58.962 91.912,59.258 91.828,59.591 C91.707,60.076 91.662,60.58 91.579,61.076 C91.554,61.226 91.56,61.445 91.466,61.509 C90.999,61.83 91.124,62.35 90.982,62.778 C90.92,62.966 90.837,63.157 90.717,63.311 C90.573,63.496 90.334,63.634 90.653,63.87 C90.66,63.875 90.513,64.079 90.45,64.196 C90.268,64.538 90.055,64.871 89.923,65.232 C89.75,65.701 89.662,66.2 89.498,66.672 C89.419,66.897 89.251,67.092 89.121,67.299 C88.875,67.692 88.686,68.142 88.366,68.461 C87.87,68.954 87.87,69.799 87.132,70.116 C87.02,70.164 87.033,70.456 86.941,70.607 C86.587,71.189 86.218,71.755 86.038,72.43 C85.986,72.626 85.698,72.748 85.59,72.944 C85.449,73.196 85.168,73.346 85.2,73.757 C85.217,73.964 84.693,74.197 84.444,74.449 C84.226,74.668 84.064,74.94 83.856,75.17 C83.709,75.331 83.493,75.435 83.368,75.608 C83.11,75.965 82.907,76.363 82.65,76.721 C82.531,76.884 82.338,76.993 82.176,77.125 C81.65,77.554 81.137,78.003 80.591,78.405 C80.065,78.793 79.805,79.5 79.069,79.644 C78.94,79.669 78.864,79.9 78.733,79.992 C78.398,80.224 78.024,80.404 77.707,80.657 C77.377,80.92 77.094,81.242 76.794,81.541 C76.548,81.785 76.415,82.18 75.945,82.114 C75.861,82.102 75.745,82.227 75.664,82.308 C75.451,82.522 75.255,82.751 75.039,82.961 C75.002,82.997 74.9,82.975 74.828,82.968 C74.756,82.96 74.642,82.9 74.618,82.927 C74.162,83.439 73.142,83.318 73.149,84.293 C72.359,84.139 71.969,84.677 71.482,85.113 C71.554,84.996 71.603,84.916 71.653,84.836 C71.635,84.814 71.617,84.793 71.6,84.771 C70.347,85.379 69.093,85.988 67.879,86.578 C67.655,86.376 67.481,86.165 67.257,86.048 C67.191,86.014 66.987,86.242 66.778,86.403 C66.91,86.591 67.01,86.733 67.095,86.855 C66.962,86.899 66.699,86.97 66.447,87.07 C66.004,87.246 65.574,87.459 65.126,87.618 C64.743,87.752 64.34,87.829 63.949,87.94 C63.876,87.96 63.821,88.038 63.749,88.062 C63.637,88.098 63.518,88.107 63.403,88.132 C63.259,88.162 63.111,88.181 62.975,88.233 C62.459,88.431 61.882,88.549 61.448,88.864 C60.722,89.392 59.858,89.185 59.105,89.467 C58.534,89.681 57.994,89.979 57.57,90.179 C57.105,90.204 56.747,90.233 56.39,90.239 C56.036,90.244 55.682,90.205 55.329,90.22 C55.001,90.233 54.667,90.255 54.351,90.335 C53.854,90.461 53.376,90.67 52.876,90.776 C52.72,90.809 52.518,90.624 52.363,90.551 C52.215,90.628 52.052,90.779 51.88,90.791 C51.321,90.832 50.775,91.039 50.201,90.923 C50.121,90.907 50.017,91.014 49.896,91.079 C49.824,90.997 49.736,90.897 49.643,90.79 C49.588,90.822 49.542,90.835 49.515,90.864 C49.346,91.046 49.189,91.148 48.896,91.084 C48.653,91.032 48.363,91.22 48.11,91.185 C47.454,91.096 46.821,91.28 46.177,91.275 C46.007,91.274 45.743,91.293 45.681,91.198 C45.459,90.86 45.387,91.16 45.307,91.233 C45.149,91.077 44.998,90.929 44.848,90.781 L44.764,90.87 C44.854,90.945 44.943,91.02 45.121,91.169 C44.634,91.169 44.26,91.168 43.885,91.17 C43.345,91.172 42.822,90.924 42.269,91.058 C42.197,91.075 42.101,91.006 42.02,90.968 C41.649,90.798 41.285,90.632 40.855,90.786 C40.744,90.825 40.592,90.746 40.459,90.725 C40.354,90.709 40.216,90.647 40.15,90.69 C39.598,91.054 39.022,90.679 38.461,90.753 C38.345,90.768 38.215,90.522 38.07,90.49 C37.404,90.345 36.726,90.254 36.063,90.098 C35.747,90.023 35.454,89.848 35.183,89.731 C35.03,89.755 34.861,89.818 34.7,89.801 C34.166,89.744 33.62,89.709 33.105,89.569 C32.414,89.382 31.749,89.101 31.07,88.867 C30.931,88.819 30.786,88.778 30.64,88.762 C30.04,88.696 29.653,88.552 28.977,88.207 C28.71,88.071 28.401,88.017 28.111,87.925 C28.093,87.872 28.077,87.82 28.06,87.767 C28.165,87.743 28.27,87.718 28.428,87.682 C28.041,87.598 27.748,87.433 27.563,87.514 C27.069,87.731 26.889,87.255 26.55,87.156 C26.173,87.046 25.78,86.975 25.424,86.82 C25.009,86.638 24.634,86.364 24.224,86.166 C23.929,86.023 23.605,85.941 23.296,85.828 C23.225,85.802 23.147,85.77 23.099,85.717 C22.476,85.025 21.606,84.645 20.821,84.281 C19.835,83.823 18.984,83.176 18.035,82.678 C17.223,82.253 16.495,81.653 15.87,80.951 C15.725,80.789 15.468,80.73 15.266,80.617 C14.747,80.325 14.247,80.022 14.115,79.362 C14.092,79.246 13.925,79.152 13.814,79.061 C13.296,78.639 12.76,78.237 12.264,77.79 C12.147,77.685 12.159,77.436 12.103,77.219 C11.824,77.236 11.678,77.094 11.677,76.758 C11.676,76.632 11.554,76.453 11.437,76.39 C10.724,76.006 10.319,75.385 10.006,74.67 C9.923,74.484 9.731,74.349 9.601,74.181 C9.04,73.451 8.479,72.722 7.932,71.982 C7.845,71.865 7.778,71.683 7.8,71.546 C7.881,71.047 7.553,70.775 7.272,70.462 C7.154,70.331 7.078,70.162 6.93,69.926 C6.5,69.993 6.466,69.4 6.502,69.187 C6.586,68.685 6.188,68.426 6.111,68.026 C6.069,67.813 5.862,67.604 5.886,67.412 C5.93,67.055 5.296,66.967 5.592,66.558 C5.534,66.554 5.461,66.571 5.42,66.542 C5.229,66.409 4.901,66.351 5.152,65.976 C5.225,65.868 5.14,65.653 5.124,65.43 C5.033,65.467 4.953,65.499 4.85,65.541 C4.858,65.487 4.863,65.45 4.869,65.412 C4.891,65.268 4.957,65.116 4.927,64.983 C4.82,64.504 4.697,64.027 4.548,63.559 C4.475,63.332 4.347,63.117 4.215,62.915 C3.927,62.472 3.902,61.967 3.815,61.469 C3.713,60.888 3.532,60.319 3.438,59.737 C3.382,59.391 3.428,59.029 3.37,58.673 C3.434,58.513 3.786,58.395 3.345,58.152 C3.233,58.09 3.179,57.845 3.175,57.681 C3.164,57.272 3.198,56.862 3.211,56.452 C3.222,56.115 3.126,55.729 3.259,55.454 C3.476,55.006 3.225,54.648 3.2,54.252 C3.177,53.874 3.142,53.497 3.115,53.12 C3.101,52.906 3.094,52.691 3.194,52.465 C3.129,52.328 3.064,52.191 3,52.054 L3.151,52.079 C3.241,51.757 3.386,51.439 3.409,51.112 C3.445,50.603 3.392,50.089 3.391,49.578 C3.391,49.515 3.486,49.457 3.515,49.388 C3.589,49.217 3.681,49.046 3.711,48.867 C3.763,48.555 3.774,48.236 3.804,47.921 C3.833,47.62 4.166,47.329 3.829,47.009 C3.806,46.987 3.883,46.855 3.92,46.776 C3.966,46.675 4.019,46.577 4.101,46.412 C4.117,46.413 4.23,46.422 4.466,46.44 C3.822,45.77 4.407,45.043 4.223,44.36 C4.606,44.157 4.936,42.965 4.756,42.605 C4.859,42.44 4.965,42.318 5.017,42.175 C5.083,41.992 5.001,41.755 5.259,41.64 C5.303,41.621 5.21,41.358 5.271,41.298 C5.432,41.137 5.642,41.024 5.78,40.929 C5.745,40.73 5.647,40.528 5.69,40.364 C5.89,39.609 6.075,38.842 6.493,38.18 C6.534,38.197 6.574,38.215 6.615,38.232 C6.587,38.02 6.558,37.809 6.524,37.559 C6.626,37.611 6.719,37.659 6.812,37.706 C6.447,37.121 6.952,36.721 7.102,36.267 C7.218,35.913 7.472,35.63 7.501,35.208 C7.512,35.041 7.738,34.786 7.813,34.522 C7.945,34.056 8.029,33.431 8.361,33.205 C8.732,32.953 8.666,32.473 9.099,32.283 C9.299,32.195 9.325,31.707 9.435,31.387 C9.475,31.392 9.547,31.402 9.586,31.407 C9.871,30.754 10.13,30.105 10.436,29.48 C10.635,29.074 11.071,28.714 11.101,28.31 C11.142,27.766 11.845,27.702 11.762,27.136 C11.745,27.021 11.96,26.811 12.111,26.743 C12.667,26.494 12.675,25.846 13.07,25.484 C13.122,25.437 13.077,25.287 13.077,25.181 C13.203,25.166 13.307,25.153 13.41,25.141 C13.393,24.949 13.377,24.773 13.361,24.592 C13.479,24.626 13.628,24.669 13.822,24.725 C13.835,24.043 14.154,23.592 14.537,23.088 C14.94,22.558 15.459,22.22 15.912,21.784 C15.946,21.751 16.014,21.732 16.02,21.699 C16.046,21.545 16.021,21.373 16.081,21.239 C16.149,21.087 16.285,20.965 16.4,20.837 C16.492,20.735 16.581,20.591 16.697,20.557 C17.113,20.436 17.354,20.184 17.421,19.759 C17.425,19.732 17.449,19.684 17.462,19.685 C18.012,19.714 18.053,19.083 18.47,18.907 C18.651,18.83 18.753,18.523 18.848,18.302 C18.934,18.101 19.274,18.05 19.171,17.714 C19.156,17.667 19.537,17.513 19.72,17.386 C19.819,17.318 19.893,17.208 19.965,17.108 C20.031,17.016 20.077,16.91 20.138,16.814 C20.237,16.659 20.341,16.508 20.444,16.356 C20.469,16.318 20.485,16.265 20.52,16.245 C20.788,16.095 21.104,15.997 21.319,15.794 C21.676,15.457 21.946,15.031 22.296,14.686 C22.486,14.499 22.765,14.404 23.006,14.268 C23.057,14.239 23.123,14.228 23.166,14.19 C23.34,14.034 23.499,13.86 23.679,13.711 C23.893,13.533 24.283,13.673 24.395,13.246 C24.433,13.101 24.81,13.045 25.025,12.952 C26.653,11.49 28.393,10.155 30.45,9.167 C30.445,9.162 30.528,9.259 30.611,9.358 C30.624,9.334 30.65,9.308 30.645,9.289 C30.532,8.87 30.842,8.76 31.127,8.676 C31.454,8.581 31.807,8.573 32.128,8.465 C32.53,8.33 32.921,8.15 33.298,7.954 C33.575,7.81 33.562,7.786 33.772,7.927 C33.969,7.805 34.134,7.692 34.31,7.6 C34.58,7.457 34.87,7.197 35.13,7.221 C35.671,7.272 36.025,6.876 36.482,6.803 C36.965,6.725 37.416,6.391 37.941,6.586 C37.986,6.603 38.087,6.579 38.108,6.543 C38.312,6.204 38.63,6.371 38.909,6.331 C39.294,6.277 39.667,6.142 40.048,6.063 C40.153,6.041 40.273,6.091 40.457,6.119 C40.626,5.933 40.951,5.874 41.235,6.085 C41.622,6.372 41.923,6.414 42.196,5.943 C42.468,6.093 42.688,6.123 42.915,5.835 C43.008,5.718 43.3,5.756 43.522,5.721 C43.512,5.702 43.475,5.633 43.436,5.563 C43.9,5.398 44.342,5.335 44.726,5.748 C44.755,5.78 44.863,5.755 44.928,5.734 C45.367,5.594 45.794,5.442 46.274,5.436 C46.659,5.431 47.04,5.266 47.428,5.222 C47.645,5.197 47.873,5.273 48.105,5.304 C48.102,5.283 48.086,5.186 48.056,5 C48.5,5.04 48.92,5.068 49.336,5.13 C49.391,5.139 49.422,5.32 49.486,5.475 C49.52,5.47 49.631,5.456 49.744,5.442 C49.681,5.298 49.629,5.179 49.568,5.04 C50.414,5.04 51.215,5.036 52.017,5.042 C52.212,5.044 52.406,5.078 52.601,5.099 C53.12,5.153 53.635,4.979 54.171,5.241 C54.471,5.388 54.92,5.262 55.296,5.213 C55.522,5.183 55.746,5.021 55.877,5.353 C55.881,5.361 55.974,5.315 56.013,5.329 C56.18,5.387 56.342,5.455 56.504,5.525 C56.545,5.542 56.59,5.613 56.613,5.604 C57.22,5.385 57.757,5.97 58.386,5.744 C58.595,5.669 58.886,5.863 59.142,5.878 C59.72,5.912 60.212,6.077 60.664,6.475 C60.848,6.639 61.235,6.57 61.528,6.614 C61.689,6.638 61.854,6.659 62.007,6.711 C62.538,6.892 63.078,7.056 63.587,7.287 C63.963,7.456 64.296,7.72 64.707,7.978 C64.752,7.948 64.905,7.775 65.076,7.754 C65.201,7.74 65.35,7.927 65.5,7.97 C65.94,8.159 66.38,8.348 66.82,8.537 C66.824,8.546 66.827,8.556 66.831,8.565 L67.333,8.839 C67.531,8.947 67.737,9.158 67.925,9.143 C68.361,9.109 68.522,9.516 68.86,9.616 C69.014,9.661 69.156,9.747 69.306,9.811 C69.445,9.87 69.714,9.755 69.657,10.076 C69.655,10.088 69.669,10.116 69.672,10.116 C70.223,10.026 70.327,10.809 70.915,10.735 C71.14,10.706 71.602,10.692 71.565,11.223 C71.697,11.183 71.82,11.146 71.977,11.098 C72.033,11.871 72.7,11.978 73.194,12.282 C73.382,12.398 73.567,12.545 73.697,12.72 C73.982,13.103 74.34,13.327 74.811,13.391 C74.891,13.401 74.96,13.501 75.119,13.627 C75.285,13.555 75.499,13.584 75.617,13.969 C75.661,14.112 75.929,14.187 76.097,14.289 C76.184,14.341 76.277,14.383 76.367,14.43 C76.325,14.506 76.283,14.581 76.195,14.738 C76.391,14.693 76.571,14.652 76.741,14.613 C76.643,15.28 77.293,15.502 77.643,15.889 C77.976,16.258 78.48,16.469 78.879,16.787 C78.977,16.865 78.961,17.087 79.005,17.276 C79.129,17.284 79.283,17.277 79.429,17.309 C79.484,17.321 79.511,17.472 79.562,17.479 C80.001,17.541 79.972,18.043 80.191,18.19 C80.608,18.472 80.918,18.8 81.193,19.201 C81.375,19.465 81.617,19.687 81.809,19.946 C82.002,20.205 82.142,20.504 82.346,20.753 C82.718,21.204 83.133,21.619 83.503,22.071 C83.68,22.287 83.785,22.561 83.938,22.8 C84.153,23.133 84.394,23.451 84.6,23.788 C84.714,23.974 84.779,24.189 84.813,24.398 C85.005,24.593 85.234,24.763 85.381,24.987 C85.605,25.328 85.769,25.709 85.968,26.068 C86.007,26.14 86.079,26.208 86.152,26.244 C86.415,26.374 86.554,26.518 86.59,26.866 C86.619,27.159 86.952,27.409 87.103,27.703 C87.347,28.179 87.546,28.678 87.774,29.162 C87.891,29.412 88.046,29.644 88.153,29.897 C88.239,30.102 88.282,30.327 88.343,30.542 C88.366,30.622 88.365,30.759 88.409,30.775 C89.045,31.012 88.966,31.713 89.302,32.144 C89.387,32.253 89.326,32.467 89.371,32.621 C89.406,32.742 89.501,32.845 89.583,32.978 C89.434,33.182 89.494,33.177 89.785,33.509 C90.035,33.793 90.202,34.174 90.322,34.539 C90.438,34.893 90.446,35.283 90.503,35.661 C90.587,35.64 90.655,35.622 90.724,35.604 C90.736,35.641 90.748,35.669 90.754,35.698 C90.797,35.946 90.823,36.197 90.885,36.439 C91.033,37.016 91.202,37.587 91.353,38.162 C91.431,38.456 91.488,38.754 91.531,38.947 C91.639,39.054 91.734,39.102 91.745,39.165 C91.863,39.847 91.969,40.531 92.077,41.215 C92.13,41.545 92.185,41.875 92.229,42.207 C92.26,42.442 92.272,42.68 92.298,42.916 C92.331,43.215 92.365,43.514 92.41,43.81 C92.421,43.887 92.488,43.954 92.503,44.031 C92.542,44.225 92.565,44.421 92.606,44.686 C92.616,44.836 92.618,45.021 92.644,45.202 C92.693,45.544 92.749,45.885 92.812,46.225 C92.953,46.986 92.993,47.756 93,48.527 C93.001,48.672 92.848,48.819 92.796,48.912 L92.796,51.684 C92.765,51.679 92.855,51.692 92.903,51.7 Z M72.1286,64.3661 C72.4416,63.9661 71.9696,63.9711 71.7676,63.8441 C71.8186,63.7821 71.8636,63.7261 71.9086,63.6711 C71.8646,63.6871 71.8206,63.7031 71.7766,63.7191 C71.6496,63.5201 71.3676,63.2301 71.4216,63.1391 C71.6116,62.8171 71.4826,62.6611 71.2706,62.4561 C71.0016,62.1961 70.7646,61.9041 70.5136,61.6251 C70.4086,61.5371 70.3886,61.3661 70.3016,61.2411 C70.0226,60.8391 69.5316,60.5881 69.4616,60.0361 C69.4556,59.9881 69.3846,59.9391 69.3346,59.9061 C68.8086,59.5631 68.2856,59.2141 67.7496,58.8881 C67.5446,58.7641 67.2746,58.7361 67.0886,58.5941 C66.7586,58.3421 66.4706,58.0361 66.1656,57.7531 C66.0826,57.6751 66.0076,57.5871 65.9186,57.5181 C65.6616,57.3221 65.4106,57.1151 65.1346,56.9491 C64.9736,56.8531 64.7596,56.8471 64.5836,56.7701 C64.1306,56.5701 63.6916,56.3381 63.2356,56.1481 C63.0226,56.0591 62.7756,56.0521 62.5546,55.9771 C62.2766,55.8841 62.0156,55.7411 61.7356,55.6531 C61.3866,55.5431 60.9926,55.5541 60.7806,55.1581 C60.6976,55.0031 60.5546,54.8241 60.4016,54.7751 C60.0346,54.6581 59.6466,54.6061 59.2646,54.5381 C59.1276,54.5141 58.9856,54.5201 58.8816,54.5141 C58.8156,54.5911 58.7216,54.7031 58.6286,54.8141 C58.5956,54.7931 58.5646,54.7711 58.5316,54.7501 L58.5316,54.3671 C58.4106,54.4041 58.2946,54.4791 58.2056,54.4541 C58.1126,54.4291 58.0536,54.2511 57.9646,54.2391 C57.4696,54.1691 56.9706,54.1131 56.4716,54.0841 C56.1786,54.0681 55.8436,54.2111 55.5956,54.1111 C54.6146,53.7161 53.5986,53.9651 52.6036,53.8771 C52.2736,53.8471 51.8916,53.8061 51.6136,53.9381 C51.2466,54.1131 50.7576,53.6971 50.4986,54.2071 C50.4636,54.1771 50.4346,54.1391 50.3946,54.1191 C50.0666,53.9491 49.0066,54.1201 48.7386,54.3771 C48.6546,54.3261 48.5576,54.2191 48.4946,54.2361 C47.9796,54.3791 47.4716,54.3931 46.9306,54.3851 C46.2826,54.3761 45.7036,54.8651 44.9996,54.8761 C44.6226,54.8821 44.2566,55.1471 43.8746,55.2551 C43.1276,55.4651 42.3676,55.6281 41.6236,55.8431 C40.8506,56.0661 40.8206,56.1211 40.8796,56.6051 C40.7426,56.5171 40.5896,56.3771 40.4126,56.3291 C40.3496,56.3121 40.2256,56.5211 40.1196,56.6381 C39.8286,56.5971 39.8546,56.6341 39.5606,56.8391 C39.1286,57.1391 38.6576,57.3841 38.2006,57.6451 C38.0666,57.7211 37.9126,57.7621 37.7796,57.8391 C37.3076,58.1171 36.8326,58.3921 36.3756,58.6941 C36.2366,58.7851 36.1706,59.0421 36.0356,59.0751 C35.7186,59.1531 35.5056,59.3261 35.2806,59.5461 C34.9446,59.8741 34.5476,60.1401 34.1936,60.4511 C33.9126,60.6981 33.6336,60.9551 33.3946,61.2411 C33.1786,61.5001 33.1126,61.8871 32.6686,61.9381 C32.5886,61.9471 32.5416,62.2421 32.4636,62.4471 C32.3506,62.5001 32.1376,62.5611 31.9726,62.6851 C31.8256,62.7961 31.7316,62.9761 31.6146,63.1261 C31.4856,63.3961 31.3806,63.7361 31.1526,63.8741 C30.7156,64.1391 30.4736,64.5311 30.2396,64.9391 C30.0966,65.1911 30.0136,65.4771 29.9066,65.7411 C29.8916,65.7371 29.9766,65.7581 30.1166,65.7931 C29.7606,66.0111 29.4536,66.2081 29.5026,66.6521 C29.5086,66.7101 29.3796,66.7771 29.3276,66.8491 C29.0056,67.3001 28.5786,67.6941 28.6916,68.3471 C28.7406,68.6321 28.7686,68.9981 28.6316,69.2211 C28.2716,69.8121 28.1676,70.4571 28.0806,71.1111 C28.0486,71.3501 28.0486,71.6781 28.1846,71.8391 C28.4546,72.1591 28.5466,72.5771 28.8536,72.8721 C29.1826,73.1901 29.5266,73.4711 29.9896,73.5291 C30.8446,73.6351 31.4966,73.3221 31.9616,72.5741 C32.2146,72.1661 32.5576,71.8151 32.8416,71.4251 C32.8946,71.3521 32.8626,71.2161 32.8656,71.1091 C32.8676,71.0251 32.8266,70.8961 32.8666,70.8631 C33.3246,70.4791 32.8206,69.8021 33.3106,69.4371 C33.1276,68.5901 33.7556,68.0021 33.9986,67.2911 C34.0686,67.0871 34.1426,66.8651 34.2776,66.7041 C34.7316,66.1611 35.2376,65.6611 35.6696,65.1031 C35.8056,64.9271 35.9036,64.8421 36.1176,64.7901 C36.2656,64.7551 36.3916,64.5631 36.4936,64.4171 C36.6476,64.1961 36.7206,63.8271 36.9206,63.7461 C37.4476,63.5331 37.8036,63.1161 38.2416,62.8011 C38.4836,62.6271 38.6736,62.3791 38.8796,62.1711 C38.9776,62.1791 39.1956,62.2381 39.2196,62.1941 C39.4336,61.7921 40.1166,61.7861 40.0896,61.1881 C40.3886,61.1541 40.8646,61.2291 40.9846,61.0571 C41.2046,60.7411 41.5056,60.7481 41.7706,60.6161 C41.8656,60.5681 41.9566,60.5091 42.0486,60.4541 C42.2946,60.3091 42.5326,60.1501 42.7856,60.0201 C43.0526,59.8841 43.3286,59.7591 43.6096,59.6581 C44.0336,59.5051 44.4586,59.2971 44.8966,59.2581 C45.4296,59.2111 45.9816,59.3311 46.3816,58.8401 C46.3996,58.8171 46.4246,58.7911 46.4506,58.7851 C46.7126,58.7191 46.9776,58.6641 47.2376,58.5921 C47.4616,58.5311 47.6816,58.4521 47.9026,58.3811 C47.8876,58.4901 47.8726,58.5981 47.8546,58.7221 C48.0996,58.6921 48.3246,58.7051 48.5186,58.6331 C49.2376,58.3651 49.9396,58.0401 50.7416,58.2111 C50.9776,58.2621 51.2146,58.3181 51.4536,58.3331 C51.9416,58.3641 52.5296,58.2051 52.8986,58.4251 C53.4446,58.7501 53.8306,57.9041 54.2886,58.3791 C54.3896,58.0281 54.5126,58.3831 54.6256,58.3771 C54.7686,58.3701 54.9146,58.4271 55.0836,58.4611 C55.2206,58.5321 55.3866,58.6291 55.5636,58.6971 C55.5866,58.7061 55.6656,58.5711 55.6966,58.5321 C55.8126,58.5981 55.9346,58.7241 56.0636,58.7311 C56.5516,58.7581 57.0446,58.7791 57.5296,58.7391 C57.9766,58.7021 58.3436,58.9641 58.5076,59.2271 C58.7196,59.5691 58.8636,59.4771 59.0456,59.3971 C59.2536,59.5161 59.4306,59.6951 59.6136,59.7031 C59.8486,59.7131 60.0496,59.6961 60.2976,59.7851 C60.5896,59.8901 60.7946,60.0531 61.0356,60.2171 C61.3196,60.4091 61.5966,60.7961 61.9586,60.5981 C62.0666,60.7551 62.1496,61.0071 62.2726,61.0281 C62.6186,61.0891 63.0186,61.1591 63.3156,61.1341 C63.8196,61.0901 64.1016,61.4151 64.3786,61.6051 C64.6426,61.7861 64.8266,62.1111 65.1966,62.1861 C65.2536,62.1971 65.2976,62.2621 65.3586,62.3111 C65.2746,62.3661 65.2206,62.4001 65.1916,62.4201 C65.2806,62.4731 65.3836,62.5121 65.4556,62.5821 C65.8636,62.9861 66.2536,63.4081 66.6716,63.8031 C66.8276,63.9491 67.1186,63.9921 67.2116,64.1591 C67.5306,64.7241 67.8036,65.3161 68.0616,65.9131 C68.1566,66.1331 68.1056,66.4221 68.2166,66.6281 C68.5296,67.2031 68.9196,67.7371 69.2296,68.3141 C69.4786,68.7781 69.7026,69.2251 70.3386,69.1421 C70.5026,69.1211 70.6706,69.0261 70.8226,69.0521 C71.2006,69.1151 71.5686,69.2271 71.8796,69.3051 C72.0006,69.1421 72.0726,68.9331 72.1896,68.9041 C72.9646,68.7121 73.0486,68.0281 73.1466,67.4531 C73.2636,66.7661 73.1366,66.0491 72.8286,65.4091 C72.6466,65.0311 72.3596,64.7041 72.1286,64.3661 Z M57.2404,32.3846 C57.6524,32.5236 58.0804,32.4986 58.3924,32.1546 C58.6974,31.8186 59.0374,31.6036 59.4784,31.4676 C59.7964,31.3686 60.0894,31.1186 60.3344,30.8766 C60.7024,30.5136 61.0084,30.0886 61.3604,29.7086 C61.5744,29.4776 61.8054,29.1466 62.0684,29.1036 C62.4274,29.0466 62.6234,28.8326 62.8614,28.6426 C62.9574,28.5666 62.9874,28.4106 63.0784,28.3246 C63.4334,27.9906 64.1454,28.1556 64.2454,27.3966 C64.2734,27.1916 64.8234,27.0676 65.1194,26.8816 C65.3184,26.7566 65.4914,26.5896 65.6104,26.4936 C65.7664,26.3806 65.8554,26.3226 65.9374,26.2536 C65.9924,26.2076 66.0504,26.0936 66.0834,26.1026 C66.5134,26.2096 66.5644,25.7676 66.8084,25.6126 C66.9344,25.5316 67.0534,25.4396 67.1654,25.3426 C67.6454,24.9256 68.1214,24.5046 68.6364,24.0516 C68.6944,24.0296 68.8594,23.9946 68.9814,23.9046 C69.1154,23.8056 69.1864,23.5836 69.3244,23.5376 C70.1154,23.2776 70.1854,22.4666 70.7114,21.9206 L70.8194,21.9206 C70.8194,21.6286 70.8554,21.3616 70.8114,21.1086 C70.7494,20.7646 70.7184,20.3576 70.5134,20.1076 C69.9364,19.4036 69.2444,18.8406 68.2214,19.1356 C68.0014,19.1996 67.7784,19.2596 67.5684,19.3486 C67.1214,19.5406 66.6524,19.7146 66.4704,20.2386 C66.3744,20.5156 66.2124,20.7186 65.8994,20.7636 C65.8604,20.7686 65.8304,20.8236 65.7934,20.8516 C65.3284,21.2016 64.8644,21.5516 64.3974,21.9006 C64.1514,22.0836 63.7634,22.2166 63.6844,22.4536 C63.5664,22.8076 63.3354,22.7966 63.0934,22.8596 C63.0414,22.8726 62.9664,22.8456 62.9334,22.8736 C62.6654,23.1036 62.4364,23.3976 62.1364,23.5666 C61.5404,23.9026 60.9684,24.2506 60.5454,24.8016 C60.5134,24.8426 60.4524,24.8736 60.4004,24.8846 C59.8604,25.0046 59.7034,25.4866 59.4414,25.8216 C58.4004,25.8336 58.1634,26.7246 57.6924,27.3306 C57.5634,27.3426 57.4564,27.3936 57.3654,27.4636 C57.0484,27.7046 56.7374,27.9516 56.4244,28.1976 C56.3964,28.1656 56.3674,28.1346 56.3384,28.1026 L56.3384,28.5026 C55.9484,28.5126 55.7844,28.6976 55.8614,29.0616 C55.4664,29.1716 55.4664,29.1716 55.5864,29.7536 C55.4134,29.8216 55.2034,29.8426 55.1754,29.9256 C55.0294,30.3486 55.4524,31.2786 55.7514,31.6256 C56.1604,32.0986 56.7124,32.2066 57.2404,32.3846 Z M28.3556,24.9315 C28.5766,25.1225 28.7206,25.5355 29.1536,25.4145 C29.2016,25.4015 29.2856,25.4345 29.3186,25.4735 C29.4906,25.6725 29.6506,25.8795 29.8406,26.1155 C29.8906,25.9945 29.9006,25.9465 29.9286,25.9125 C29.9496,25.8865 29.9926,25.8775 30.0356,25.8555 C30.0176,26.5165 30.5826,26.8855 31.2666,26.6635 C31.3776,26.8395 31.4926,27.0205 31.5446,27.1025 C31.7556,27.2215 31.8926,27.2955 32.0266,27.3735 C32.2076,27.4795 32.3806,27.5985 32.5656,27.6945 C33.1266,27.9845 33.7176,28.2245 34.2466,28.5625 C34.7036,28.8545 35.0916,29.2545 35.5466,29.6375 C35.5426,29.6515 35.5246,29.7115 35.5136,29.7515 C36.0446,29.9455 36.5336,30.1225 37.0216,30.3045 C37.0446,30.3125 37.0546,30.3545 37.0766,30.3745 C37.3646,30.6445 37.6216,30.9685 37.9536,31.1675 C38.2986,31.3745 38.7276,31.4365 39.1016,31.6025 C40.0716,32.0355 41.0176,32.0485 41.9586,31.5215 C42.1116,31.4355 42.2636,31.4195 42.2136,31.1565 C42.1846,31.0005 42.3326,30.8105 42.3996,30.6355 C42.4456,30.6405 42.4906,30.6465 42.5356,30.6525 C42.4456,30.5195 42.3556,30.3865 42.2506,30.2305 C42.3696,30.1705 42.4706,30.1185 42.6136,30.0445 C42.4436,29.7675 42.2946,29.4805 42.1056,29.2245 C41.7656,28.7645 41.4736,28.2705 40.9516,27.9585 C40.5286,27.7065 40.1706,27.3485 39.7646,27.0645 C39.4266,26.8275 39.0646,26.6255 38.7066,26.4195 C38.5546,26.3315 38.3836,26.2745 38.2246,26.1975 C37.9576,26.0675 37.6916,25.9315 37.4246,25.8005 C37.3346,25.7565 37.2326,25.7315 37.1506,25.6765 C36.8126,25.4495 36.4766,25.2195 36.1476,24.9795 C36.0176,24.8855 35.9256,24.7005 35.7886,24.6635 C35.1316,24.4885 34.5966,24.1345 34.0996,23.6835 C33.8536,23.4595 33.5326,23.3195 33.2506,23.1345 C33.0906,23.0295 32.9416,22.9085 32.7886,22.7945 C32.8106,22.7605 32.8336,22.7255 32.8556,22.6915 C32.7396,22.6705 32.6126,22.6715 32.5076,22.6245 C31.8406,22.3225 31.1946,21.9665 30.5086,21.7195 C30.1606,21.5935 29.7236,21.5695 29.3646,21.6555 C28.8756,21.7715 28.4236,22.0405 27.9516,22.2335 C27.9106,22.2505 27.8396,22.1935 27.8256,22.1875 C27.7736,22.3205 27.7596,22.5045 27.6806,22.5375 C27.3776,22.6655 27.3936,22.8335 27.5216,23.0835 C27.6056,23.2465 27.6486,23.4375 27.6766,23.6215 C27.7546,24.1385 27.9766,24.6035 28.3556,24.9315 Z M68.0807,34.0863 C67.6187,33.6543 67.0637,33.3223 66.5857,32.9043 C66.1417,32.5163 65.6087,32.3783 65.0657,32.3123 C64.6067,32.2563 64.1107,32.4213 63.6697,32.3203 C63.0977,32.1883 62.6637,32.3773 62.2447,32.6723 C61.6847,33.0653 61.2627,33.5523 60.9117,34.1773 C60.5447,34.8293 60.6977,35.4613 60.5607,36.1413 C60.5247,36.1613 60.4287,36.2173 60.3417,36.2673 C60.4577,36.4153 60.5847,36.5223 60.6377,36.6583 C60.7367,36.9113 60.7247,37.2323 60.8807,37.4313 C61.0907,37.6983 60.9037,38.2853 61.4057,38.2453 C61.5327,38.4513 61.5997,38.7123 61.7407,38.7603 C62.2917,38.9503 62.4977,39.5093 62.8727,39.8593 C63.2117,40.1743 63.5987,40.1683 63.9187,40.3143 C64.3257,40.5013 64.8967,40.3543 65.3937,40.3093 C65.6767,40.2843 65.9537,40.1123 66.2307,40.1163 C66.8077,40.1263 67.2127,39.9133 67.4927,39.3073 C67.5307,39.4063 67.5687,39.5063 67.6347,39.6813 C68.1077,38.9153 68.5557,38.2193 68.9717,37.5043 C69.2557,37.0173 69.3297,36.4323 69.2057,35.9253 C69.0327,35.2223 68.6177,34.5873 68.0807,34.0863 Z M30.8859,38.3905 C31.0469,38.6285 31.1339,38.9155 31.3009,38.9735 C31.8379,39.1625 32.0309,39.7075 32.3919,40.0485 C32.7299,40.3665 33.1169,40.3535 33.4369,40.5015 C33.8429,40.6895 34.4149,40.5415 34.9109,40.4965 C35.1949,40.4715 35.4709,40.2995 35.7489,40.3045 C36.3259,40.3125 36.7329,40.0985 36.9619,39.4245 C37.0219,39.6385 37.0559,39.7595 37.0729,39.8225 C37.4169,39.4125 37.7239,39.0815 37.9859,38.7185 C38.1239,38.5265 38.1839,38.2775 38.2789,38.0545 C38.3109,37.9805 38.3279,37.8975 38.3749,37.8355 C38.8859,37.1565 38.8289,35.7805 38.2689,35.1135 C37.4559,34.1455 36.4369,33.4465 35.3389,32.8545 C35.1789,32.7695 34.9699,32.7765 34.7839,32.7405 C34.6029,32.6365 34.4069,32.5075 34.2019,32.4925 C33.8639,32.4665 33.4959,32.5985 33.1829,32.5125 C32.6359,32.3615 32.1969,32.5635 31.7959,32.8335 C31.2189,33.2225 30.7839,33.7255 30.4279,34.3675 C30.0649,35.0215 30.2199,35.6535 30.0779,36.3295 C30.0419,36.3505 29.9459,36.4075 29.8499,36.4635 C29.8989,36.4645 29.9469,36.4665 29.9959,36.4685 C30.0579,36.6985 30.1229,36.9275 30.1809,37.1585 C30.1939,37.2075 30.1679,37.2715 30.1899,37.3125 C30.3309,37.5655 30.6139,37.8245 30.5959,38.0615 C30.5659,38.4715 30.7799,38.3885 30.8859,38.3905 Z" id="Fill-115"></path>
            </g>
        </g>
    </g>
</svg>