<svg xmlns="http://www.w3.org/2000/svg" viewBox="0 0 100 100" role="img" aria-label="Procrastitype">
  <path d="M26,6 H66 L94,34 V74 A20,20 0 0 1 74,94 H26 A20,20 0 0 1 6,74 V26 A20,20 0 0 1 26,6 Z" fill="#3a434c"/>
  <polygon points="66,6 94,6 94,34" fill="#8c95a0"/>
  <line x1="66" y1="6" x2="94" y2="34" stroke="#262b30" stroke-width="1.6" opacity="0.5"/>
  <g opacity="0.4">
    <rect x="38" y="30" width="9" height="42" rx="4" fill="#eef0f1"/>
    <path d="M47,30 h9 a13,13 0 0 1 0,26 h-9 z" fill="#eef0f1"/>
  </g>
  <g>
    <rect x="30" y="26" width="9" height="46" rx="4" fill="#eef0f1"/>
    <path d="M39,26 h10 a14.5,14.5 0 0 1 0,29 h-10 z" fill="#eef0f1"/>
  </g>
</svg>
